# xmcd
#
# Track frame offsets:
#	150
#	17570
#	36253
#	53873
#	71330
#	87328
#	103495
#	117670
#	132805
#	150710
#
# Disc length: 2193 seconds
#
# Revision: 1
# Processed by: cddbd v1.5.2PL0 Copyright (c) Steve Scherf et al.
# Submitted via: EasyCDDAExtractor 15.3.0.1
#
DISCID=87088f0a
DTITLE=Daniela Romo - Gitana
DYEAR=1987
DGENRE=Latin
TTITLE0=Es Mejor Perdonar
TTITLE1=Diez Minutos De Amor
TTITLE2=Lo Que Las Mujeres Callamos
TTITLE3=Tanto Esperar Por Ti
TTITLE4=Gitana
TTITLE5=Hay Un Sitio Libre En Mi Corazon (A Dueto Con Mijares)
TTITLE6=Ese Momento
TTITLE7=El Poder Del Amor
TTITLE8=El Diablo En Mi Tejado
TTITLE9=Cuando Empieza Un Amor
EXTD=
EXTT0=
EXTT1=
EXTT2=
EXTT3=
EXTT4=
EXTT5=
EXTT6=
EXTT7=
EXTT8=
EXTT9=
PLAYORDER=
